<?xml version="1.0" encoding="UTF-8"?>
<svg xmlns="http://www.w3.org/2000/svg" width="1200" height="630" viewBox="0 0 1200 630">
  <defs>
    <linearGradient id="bg" x1="0%" y1="0%" x2="0%" y2="100%">
      <stop offset="0%" stop-color="#0f172a" />
      <stop offset="100%" stop-color="#1e3a5f" />
    </linearGradient>
    <radialGradient id="glow" cx="50%" cy="45%" r="60%">
      <stop offset="0%" stop-color="#d4af37" stop-opacity="0.08" />
      <stop offset="100%" stop-color="#d4af37" stop-opacity="0" />
    </radialGradient>
  </defs>

  <!-- Background -->
  <rect width="1200" height="630" fill="url(#bg)" />
  <rect width="1200" height="630" fill="url(#glow)" />

  <!-- Capitol-dome accent, right side -->
  
  <g transform="translate(880, 200) scale(1.1)" opacity="0.18" fill="#d4af37" stroke="none">
    <!-- Base platform -->
    <rect x="-140" y="250" width="280" height="40" rx="2" />
    <!-- Lower drum -->
    <rect x="-100" y="200" width="200" height="50" rx="2" />
    <!-- Columns ring (stylized) -->
    <rect x="-95" y="160" width="8" height="40" />
    <rect x="-65" y="160" width="8" height="40" />
    <rect x="-35" y="160" width="8" height="40" />
    <rect x="-5" y="160" width="8" height="40" />
    <rect x="25" y="160" width="8" height="40" />
    <rect x="55" y="160" width="8" height="40" />
    <rect x="85" y="160" width="8" height="40" />
    <!-- Dome body -->
    <path d="M -90 160 A 90 90 0 0 1 90 160 Z" />
    <!-- Finial -->
    <rect x="-3" y="40" width="6" height="30" />
    <circle cx="0" cy="35" r="8" />
    <!-- Flagpole -->
    <rect x="-1" y="15" width="2" height="20" />
  </g>


  <!-- Thin gold rule above wordmark -->
  <rect x="80" y="240" width="60" height="3" fill="#d4af37" />

  <!-- Wordmark -->
  <text x="80" y="330" fill="#ffffff"
        font-family="Merriweather, Georgia, 'Times New Roman', serif"
        font-weight="900" font-size="96" letter-spacing="-2">FedBenefitsAid</text>

  <!-- Italic gold tagline -->
  <text x="80" y="410" fill="#d4af37"
        font-family="Merriweather, Georgia, 'Times New Roman', serif"
        font-style="italic" font-weight="700" font-size="48" letter-spacing="-0.5">Retirement benefits, finally clear.</text>

  <!-- Kicker line — small, muted -->
  <text x="80" y="470" fill="rgba(255,255,255,0.65)"
        font-family="'Source Sans 3', -apple-system, BlinkMacSystemFont, sans-serif"
        font-weight="500" font-size="26" letter-spacing="0.5">FERS · TSP · FEHB · FEGLI · Medicare · Social Security</text>

  <!-- URL in bottom-right -->
  <text x="1160" y="590" fill="#ffffff"
        text-anchor="end"
        font-family="'Source Sans 3', -apple-system, BlinkMacSystemFont, sans-serif"
        font-weight="700" font-size="24" letter-spacing="0.5">fedbenefitsaid.com</text>
</svg>
